<svg version="1.2" xmlns="http://www.w3.org/2000/svg" viewBox="0 0 216 216" width="216" height="216">
	<title>icon-svg</title>
	<style>
		.s0 { fill: #3377ff } 
		.s1 { fill: none;stroke: #000000;stroke-miterlimit:100;stroke-width: 24 } 
		.s2 { fill: #000000 } 
	</style>
	<path id="Shape 8" class="s0" d="m0 27c0-14.9 12.1-27 27-27h162c14.9 0 27 12.1 27 27v162c0 14.9-12.1 27-27 27h-162c-14.9 0-27-12.1-27-27z"/>
	<path id="Shape 4" fill-rule="evenodd" class="s1" d="m60 96c-19.9 0-36-16.1-36-36 0-19.9 16.1-36 36-36 19.9 0 36 16.1 36 36 0 19.9-16.1 36-36 36z"/>
	<path id="Shape 9" class="s2" d="m84 60c0-6.6 5.4-12 12-12 6.6 0 12 5.4 12 12v96c0 6.6-5.4 12-12 12-6.6 0-12-5.4-12-12z"/>
	<path id="Shape 6" fill-rule="evenodd" class="s1" d="m66 192c-16.6 0-30-13.4-30-30 0-16.6 13.4-30 30-30 16.6 0 30 13.4 30 30 0 16.6-13.4 30-30 30z"/>
	<path id="Shape 7" class="s2" d="m60 132c0-6.6 5.3-12 11.8-12h60.4c6.5 0 11.8 5.4 11.8 12 0 6.6-5.3 12-11.8 12h-60.4c-6.5 0-11.8-5.4-11.8-12z"/>
	<path id="Shape 1" class="s2" d="m156 24c0-6.6 5.4-12 12-12 6.6 0 12 5.4 12 12v168c0 6.6-5.4 12-12 12-6.6 0-12-5.4-12-12z"/>
	<path id="Shape 2" class="s2" d="m108 24c0-6.6 5.4-12 12-12h72c6.6 0 12 5.4 12 12 0 6.6-5.4 12-12 12h-72c-6.6 0-12-5.4-12-12z"/>
	<path id="Shape 3" class="s2" d="m48 96c0-6.6 5.4-12 12-12h108c6.6 0 12 5.4 12 12 0 6.6-5.4 12-12 12h-108c-6.6 0-12-5.4-12-12z"/>
</svg>